Coordinates
version=1
nRows=10
nColumns=34
inDegrees=yes

Units are S.I. units (second, meters, Newtons, ...)
If the header above contains a line with 'inDegrees', this indicates whether rotational values are in degrees (yes) or radians (no).

endheader
time	pelvis_tilt	pelvis_list	pelvis_rotation	pelvis_tx	pelvis_ty	pelvis_tz	hip_flexion_r	hip_adduction_r	hip_rotation_r	knee_angle_r	ankle_angle_r	subtalar_angle_r	mtp_angle_r	hip_flexion_l	hip_adduction_l	hip_rotation_l	knee_angle_l	ankle_angle_l	subtalar_angle_l	mtp_angle_l	lumbar_extension	lumbar_bending	lumbar_rotation	arm_flex_r	arm_add_r	arm_rot_r	elbow_flex_r	pro_sup_r	arm_flex_l	arm_add_l	arm_rot_l	elbow_flex_l	pro_sup_l
      0.68333330	      2.87307542	      1.53930945	    -19.57717044	      0.23451724	      0.99739880	      0.11557772	      2.08775544	     -6.59006864	    -17.77063021	      5.13991531	     12.58756214	      1.57023622	      0.00000000	      7.99475391	     -6.34649676	    -16.59824030	      6.58044468	     12.54752185	      6.50592387	      0.00000000	     -8.83420913	     -2.57608475	      0.69220229	     51.31405651	    -28.16918657	     54.62187872	     87.90137634	    110.52131900	     50.40662521	    -25.51880221	     50.68821345	     90.34967200	    112.38725025
      0.70000000	      2.94106606	      1.55384364	    -19.61836711	      0.23770026	      0.99809262	      0.11662970	      1.36671745	     -6.47871256	    -17.74730277	      4.23690893	     12.29613847	      1.76148987	      0.00000000	      7.34632026	     -6.16996856	    -16.44368212	      5.87520047	     12.32605728	      6.33654284	      0.00000000	     -8.43724245	     -2.60241726	      0.57857952	     50.76402793	    -27.94446987	     54.52209209	     87.39878429	    110.42464091	     49.81442958	    -25.60446746	     50.98226097	     89.89235629	    112.32107703
      0.71666670	      3.33225097	      1.50546422	    -19.61865515	      0.24039914	      0.99918852	      0.11789842	      0.26312520	     -6.39249255	    -17.60818690	      3.25861944	     11.85608215	      1.99464451	      0.00000000	      6.34263991	     -5.94500866	    -16.02926114	      5.09598000	     11.90375431	      6.07663449	      0.00000000	     -8.51750433	     -2.73667950	      0.42978818	     49.88041375	    -27.63186376	     53.99639518	     87.12792044	    110.24733101	     49.13525584	    -25.67209946	     51.03055270	     89.75788583	    112.18816319
      0.73333330	      3.57563693	      1.48103682	    -19.70718094	      0.24231376	      0.99966730	      0.11880834	     -0.40347424	     -6.35223604	    -17.51395431	      2.69269765	     11.76912186	      2.05179479	      0.00000000	      5.69192618	     -5.80953357	    -15.80101183	      4.63864245	     11.81661712	      5.71358953	      0.00000000	     -8.49392641	     -2.76081495	      0.38710887	     49.02942535	    -27.44048978	     53.65917460	     87.04853700	    110.11078553	     48.41012967	    -25.82933672	     51.12431562	     89.68517409	    112.07860429
      0.75000000	      3.71950984	      1.43140025	    -19.78847700	      0.24308446	      0.99985221	      0.11915180	     -0.56743830	     -6.37642221	    -17.51493630	      2.78931349	     11.78925592	      2.00916499	      0.00000000	      5.52243463	     -5.83738578	    -15.81528627	      4.77570709	     11.80810954	      5.61629953	      0.00000000	     -8.53866778	     -2.66969927	      0.33231355	     48.44628013	    -27.32939165	     53.81099612	     86.99168453	    110.10433804	     47.84199768	    -25.94549866	     51.34245089	     89.49121390	    112.07317416
      0.76666670	      4.00922429	      1.33303327	    -19.97379669	      0.24438400	      1.00028225	      0.12052550	     -1.29585119	     -6.23149325	    -17.30487604	      2.15013125	     11.74116431	      2.19614534	      0.00000000	      4.81499792	     -5.80437020	    -15.69983538	      4.34557836	     11.83337927	      5.32653386	      0.00000000	     -8.52445437	     -2.69518074	      0.34409144	     47.21955921	    -26.68390336	     53.11909526	     86.28437009	    109.93660571	     46.76502031	    -25.88966647	     51.05686968	     89.01429386	    111.91602348
      0.78333330	      4.19491280	      1.25706236	    -20.03782652	      0.24460079	      1.00038236	      0.12126662	     -1.46365704	     -6.19939456	    -17.29059268	      2.29228160	     11.77913730	      2.14307907	      0.00000000	      4.62734660	     -5.87411080	    -15.72675645	      4.49547042	     11.83135911	      5.22122212	      0.00000000	     -8.64197321	     -2.68608180	      0.25674135	     46.49041725	    -26.47664491	     53.40202616	     86.23734493	    109.93838825	     46.04004634	    -25.95988392	     51.37898732	     88.70912534	    111.91119013
      0.80000000	      4.70532482	      1.09254083	    -20.16665248	      0.24576245	      1.00113449	      0.12268395	     -2.50707451	     -6.03682593	    -17.07955406	      1.54706252	     11.63758106	      2.11746741	      0.00000000	      3.58038704	     -5.78303870	    -15.59223438	      3.84122269	     11.64388532	      4.82034422	      0.00000000	     -8.90578762	     -2.75367137	      0.37427826	     45.14226212	    -26.00802411	     52.92352637	     85.67256371	    109.70152437	     45.08775039	    -25.79223315	     51.59696772	     87.70303401	    111.63937041
      0.81666670	      4.88870654	      1.01427533	    -20.19960805	      0.24615715	      1.00116870	      0.12352606	     -2.80595948	     -5.95939366	    -17.04140681	      1.46851756	     11.84333962	      2.01444056	      0.00000000	      3.29554257	     -5.82139954	    -15.64240872	      3.81792383	     11.79514804	      4.64528399	      0.00000000	     -8.91426318	     -2.76129234	      0.34009372	     44.17669394	    -25.73858952	     53.28806549	     85.22716432	    109.68270949	     44.14204040	    -25.84375490	     52.04084271	     86.90480979	    111.60102484
      0.83333330	      5.11526992	      0.98260610	    -20.29131596	      0.24703290	      1.00137135	      0.12425537	     -3.26524249	     -5.94704208	    -16.92999592	      1.14896214	     11.86718835	      2.02727706	      0.00000000	      2.90073973	     -5.77805486	    -15.64779058	      3.70522949	     11.84198401	      4.54819673	      0.00000000	     -8.86985854	     -2.76615650	      0.39677777	     43.02071650	    -25.44770071	     53.49083188	     84.35939798	    109.63678836	     43.03713179	    -25.89041993	     52.37103879	     85.88120096	    111.53853742
